<?xml version="1.0" encoding="UTF-8" standalone="no"?>
<svg
   xmlns:dc="http://purl.org/dc/elements/1.1/"
   xmlns:cc="http://creativecommons.org/ns#"
   xmlns:rdf="http://www.w3.org/1999/02/22-rdf-syntax-ns#"
   xmlns:svg="http://www.w3.org/2000/svg"
   xmlns="http://www.w3.org/2000/svg"
   xmlns:xlink="http://www.w3.org/1999/xlink"
   xmlns:sodipodi="http://sodipodi.sourceforge.net/DTD/sodipodi-0.dtd"
   xmlns:inkscape="http://www.inkscape.org/namespaces/inkscape"
   width="264px"
   height="280px"
   viewBox="0 0 264 280"
   version="1.1"
   id="svg104"
   sodipodi:docname="avataaars.svg"
   inkscape:version="1.0.1 (3bc2e813f5, 2020-09-07)">
  <metadata
     id="metadata108">
    <rdf:RDF>
      <cc:Work
         rdf:about="">
        <dc:format>image/svg+xml</dc:format>
        <dc:type
           rdf:resource="http://purl.org/dc/dcmitype/StillImage" />
      </cc:Work>
    </rdf:RDF>
  </metadata>
  <sodipodi:namedview
     pagecolor="#ffffff"
     bordercolor="#666666"
     borderopacity="1"
     objecttolerance="10"
     gridtolerance="10"
     guidetolerance="10"
     inkscape:pageopacity="0"
     inkscape:pageshadow="2"
     inkscape:window-width="1920"
     inkscape:window-height="1001"
     id="namedview106"
     showgrid="false"
     inkscape:zoom="2.1415234"
     inkscape:cx="88.789994"
     inkscape:cy="130.10866"
     inkscape:window-x="-9"
     inkscape:window-y="-9"
     inkscape:window-maximized="1"
     inkscape:current-layer="Clothing/Shirt-V-Neck" />
  <desc
     id="desc2">Created with getavataaars.com</desc>
  <defs
     id="defs7">
    <circle
       id="react-path-1"
       cx="120"
       cy="120"
       r="120" />
    <path
       d="M12,160 C12,226.27417 65.72583,280 132,280 C198.27417,280 252,226.27417 252,160 L264,160 L264,-1.42108547e-14 L-3.19744231e-14,-1.42108547e-14 L-3.19744231e-14,160 L12,160 Z"
       id="react-path-2" />
    <path
       d="M124,144.610951 L124,163 L128,163 L128,163 C167.764502,163 200,195.235498 200,235 L200,244 L0,244 L0,235 C-4.86974701e-15,195.235498 32.235498,163 72,163 L72,163 L76,163 L76,144.610951 C58.7626345,136.422372 46.3722246,119.687011 44.3051388,99.8812385 C38.4803105,99.0577866 34,94.0521096 34,88 L34,74 C34,68.0540074 38.3245733,63.1180731 44,62.1659169 L44,56 L44,56 C44,25.072054 69.072054,5.68137151e-15 100,0 L100,0 L100,0 C130.927946,-5.68137151e-15 156,25.072054 156,56 L156,62.1659169 C161.675427,63.1180731 166,68.0540074 166,74 L166,88 C166,94.0521096 161.51969,99.0577866 155.694861,99.8812385 C153.627775,119.687011 141.237365,136.422372 124,144.610951 Z"
       id="react-path-3" />
    <mask
       id="react-mask-5"
       fill="white">
      <use
         xlink:href="#react-path-2"
         id="use16" />
    </mask>
    <mask
       id="react-mask-694"
       fill="#ffffff">
      <use
         xlink:href="#react-path-696"
         id="use64"
         x="0"
         y="0"
         width="100%"
         height="100%" />
    </mask>
  </defs>
  <g
     id="g102"
     stroke="none"
     stroke-width="1"
     fill="none"
     fill-rule="evenodd">
    <g
       transform="translate(-825.000000, -1100.000000)"
       id="Avataaar/Circle">
      <g
         id="Circle"
         stroke-width="1"
         fill-rule="evenodd"
         transform="translate(837,1140)">
        <mask
           id="react-mask-4"
           fill="#ffffff">
          <use
             xlink:href="#react-path-1"
             id="use9"
             x="0"
             y="0"
             width="100%"
             height="100%" />
        </mask>
        <use
           id="Circle-Background"
           fill="#e6e6e6"
           xlink:href="#react-path-1"
           x="0"
           y="0"
           width="100%"
           height="100%" />
        <g
           id="Color/Palette/Blue-01"
           mask="url(#react-mask-4)"
           fill="#65c9ff"
           style="fill:#2c3e50;fill-opacity:1">
          <rect
             id="ðŸ–Color"
             x="0"
             y="0"
             width="240"
             height="240"
             style="fill:#2c3e50;fill-opacity:1" />
        </g>
      </g>
      <g
         id="Mask"
         transform="translate(825,1100)" />
      <g
         id="Avataaar"
         stroke-width="1"
         fill-rule="evenodd"
         mask="url(#react-mask-5)"
         transform="translate(825,1100)">
        <g
           id="Body"
           transform="translate(32,36)">
          <mask
             id="react-mask-6"
             fill="#ffffff">
            <use
               xlink:href="#react-path-3"
               id="use20"
               x="0"
               y="0"
               width="100%"
               height="100%" />
          </mask>
          <use
             fill="#d0c6ac"
             xlink:href="#react-path-3"
             id="use23"
             x="0"
             y="0"
             width="100%"
             height="100%" />
          <g
             id="Skin/ðŸ‘¶ðŸ½-03-Brown"
             mask="url(#react-mask-6)"
             fill="#edb98a">
            <g
               id="Color">
              <rect
                 x="0"
                 y="0"
                 width="264"
                 height="280"
                 id="rect25" />
            </g>
          </g>
          <path
             d="m 156,79 v 23 c 0,30.92795 -25.07205,56 -56,56 -30.927946,0 -56,-25.07205 -56,-56 V 79 94 c 0,30.92795 25.072054,56 56,56 30.92795,0 56,-25.07205 56,-56 z"
             id="Neck-Shadow"
             fill-opacity="0.1"
             fill="#000000"
             mask="url(#react-mask-6)" />
        </g>
        <g
           id="Clothing/Shirt-V-Neck"
           transform="translate(0,170)">
          <defs
             id="defs32">
            <path
               d="M 171.31963,29.936436 C 205.70634,35.366571 232,65.13854 232,101.05172 V 110 H 32 v -8.94828 c 0,-35.913668 26.294378,-65.685958 60.681771,-71.115506 0.901826,5.069146 3.434622,9.887629 7.554359,13.602765 v 0 l 29.08507,26.228654 c 1.52212,1.372627 3.83548,1.372627 5.3576,0 v 0 l 29.08508,-26.228654 c 0.42558,-0.383791 0.83729,-0.782702 1.23432,-1.195966 3.41596,-3.555646 5.5191,-7.89097 6.32143,-12.406577 z"
               id="react-path-673" />
          </defs>
          <mask
             id="react-mask-674"
             fill="#ffffff">
            <use
               xlink:href="#react-path-673"
               id="use34"
               x="0"
               y="0"
               width="100%"
               height="100%" />
          </mask>
          <use
             id="Clothes"
             fill="#e6e6e6"
             fill-rule="evenodd"
             xlink:href="#react-path-673"
             x="0"
             y="0"
             width="100%"
             height="100%" />
          <g
             id="Color/Palette/Gray-01"
             mask="url(#react-mask-674)"
             fill-rule="evenodd"
             fill="#929598"
             style="fill:#ffffff;fill-opacity:1">
            <rect
               id="rect38"
               x="0"
               y="0"
               width="264"
               height="110"
               style="fill:#ffffff;fill-opacity:1" />
          </g>
        </g>
        <g
           id="Face"
           transform="translate(76,82)"
           fill="#000000">
          <g
             id="Mouth/Default"
             transform="translate(2,52)"
             fill-opacity="0.7">
            <path
               d="m 40,15 c 0,7.731987 6.268014,14 14,14 v 0 c 7.731986,0 14,-6.268013 14,-14"
               id="Mouth" />
          </g>
          <g
             id="Nose/Default"
             transform="translate(28,40)"
             fill-opacity="0.16">
            <path
               d="m 16,8 c 0,4.418278 5.372583,8 12,8 v 0 c 6.627417,0 12,-3.581722 12,-8"
               id="Nose" />
          </g>
          <g
             id="Eyes/Happy-ðŸ˜"
             transform="translate(0,8)"
             fill-opacity="0.6">
            <path
               d="M 16.160167,22.447312 C 18.006676,18.648508 22.164422,16 26.99758,16 c 4.816097,0 8.961542,2.629842 10.817772,6.407124 0.551408,1.122074 -0.233248,2.040358 -1.024745,1.359899 -2.451101,-2.10724 -5.931891,-3.423235 -9.793027,-3.423235 -3.740374,0 -7.123822,1.234964 -9.560041,3.227853 -0.890746,0.728653 -1.817438,-0.01326 -1.277372,-1.124329 z"
               id="Squint" />
            <path
               d="M 74.160167,22.447312 C 76.006676,18.648508 80.164422,16 84.99758,16 c 4.816097,0 8.961542,2.629842 10.817772,6.407124 0.551408,1.122074 -0.233248,2.040358 -1.024745,1.359899 -2.451101,-2.10724 -5.931891,-3.423235 -9.793027,-3.423235 -3.740374,0 -7.123822,1.234964 -9.560041,3.227853 -0.890746,0.728653 -1.817438,-0.01326 -1.277372,-1.124329 z"
               id="path47" />
          </g>
          <g
             id="Eyebrow/Natural/Raised-Excited-Natural"
             fill-opacity="0.6">
            <path
               d="M 22.766353,1.578449 23.677298,1.1758214 C 28.9191,-0.90526575 36.864547,-0.03287296 41.722732,2.2991164 42.289785,2.5714896 41.902156,3.4519421 41.321101,3.4071101 26.402179,2.256022 16.358287,11.552594 12.946087,17.847094 12.844922,18.033714 12.539152,18.05489 12.463534,17.880835 10.156283,12.562068 16.913448,3.8961472 22.766353,1.578449 Z"
               id="Eye-Browse-Reddit" />
            <path
               d="M 80.766353,1.578449 81.677298,1.1758214 C 86.9191,-0.90526575 94.864547,-0.03287296 99.722732,2.2991164 100.28978,2.5714896 99.902156,3.4519421 99.321101,3.4071101 84.402179,2.256022 74.358287,11.552594 70.946087,17.847094 70.844921,18.033714 70.539152,18.05489 70.463534,17.880835 68.156283,12.562068 74.913448,3.8961472 80.766353,1.578449 Z"
               id="path51"
               transform="matrix(-1,0,0,1,170,0)" />
          </g>
        </g>
        <g
           id="Top"
           stroke-width="1"
           fill-rule="evenodd">
          <defs
             id="defs57">
            <rect
               id="react-path-695"
               x="0"
               y="0"
               width="264"
               height="280" />
            <path
               d="M 133.50638,81.335115 C 137.36365,83.3307 140,87.357474 140,92 v 13 c 0,6.01863 -4.43087,11.00236 -10.20858,11.86719 -1.74323,20.2476 -14.26064,37.41579 -31.79142,45.74376 v 0 V 181 h 4 c 17.49091,0 33.52512,6.23689 46,16.60805 V 74 C 148,53.565464 139.71727,35.065464 126.3259,21.674098 112.93454,8.2827321 94.434536,0 74,0 33.130929,0 0,33.130929 0,74 V 257.71645 C 13.569177,255.77553 24,244.10589 24,230 V 184.4231 C 30.934681,182.2002 38.32718,181 46,181 h 4 v -18.38905 c -11.227375,-5.33354 -20.398463,-14.293 -26,-25.3651 V 75.265959 C 33.14679,72.291006 42.777598,68.017065 52.341516,62.495334 67.744547,53.60239 80.431395,42.940915 89.066143,32.397036 90.831069,37.595144 93.175256,42.800974 96.110431,47.884847 104.87788,63.070515 117.22419,74.233705 130,79.917049 v 0.248868 c 0.40042,0.06718 0.79412,0.154187 1.18005,0.259982 0.77446,0.323407 1.55013,0.626586 2.32633,0.909216 z"
               id="react-path-696" />
          </defs>
          <mask
             id="react-mask-693"
             fill="#ffffff">
            <use
               xlink:href="#react-path-695"
               id="use59"
               x="0"
               y="0"
               width="100%"
               height="100%" />
          </mask>
          <g
             id="g62" />
          <g
             id="Top/Long-Hair/Straight"
             mask="url(#react-mask-693)">
            <g
               transform="translate(-1)"
               id="g94">
              <use
                 id="Mask-Hair"
                 fill="#944f23"
                 xlink:href="#react-path-696"
                 x="0"
                 y="0"
                 width="100%"
                 height="100%"
                 style="fill-rule:evenodd;stroke-width:1;fill:#714128;fill-opacity:1"
                 transform="translate(59,18)" />
              <g
                 id="g72"
                 mask="url(#react-mask-694)"
                 fill="#4a312c"
                 style="fill-rule:evenodd;stroke-width:1;fill:#714128;fill-opacity:1"
                 transform="translate(59,18)">
                <g
                   id="g70"
                   style="fill:#714128;fill-opacity:1">
                  <rect
                     x="0"
                     y="0"
                     width="264"
                     height="280"
                     id="rect68"
                     style="fill:#714128;fill-opacity:1" />
                </g>
              </g>
              <path
                 d="m 192.50638,99.335115 c 4.86812,1.772585 9.7567,2.736845 14.49362,2.813115 v 0 V 92 C 207,71.565464 198.71727,53.065464 185.3259,39.674098 198.71727,53.065464 207,71.565464 207,92 V 215.60805 C 194.52512,205.23689 178.49091,199 161,199 h -4 v -18.38905 0 c 17.53078,-8.32797 30.04819,-25.49616 31.79142,-45.74376 C 194.56913,134.00236 199,129.01862 199,123 v -13 c 0,-4.64253 -2.63635,-8.6693 -6.49362,-10.664885 z m -2.32633,-0.909216 C 189.79412,98.320104 189.40042,98.233095 189,98.165917 v -0.248868 c 0.39297,0.174815 0.78635,0.344446 1.18005,0.50885 z M 83,155.24585 c 5.601537,11.0721 14.772625,20.03156 26,25.3651 V 199 h -4 c -7.67282,0 -15.065319,1.2002 -22,3.4231 z"
                 id="Shadow"
                 fill-opacity="0.24"
                 fill="#000000"
                 fill-rule="evenodd" />
              <g
                 id="Top/_Resources/Prescription-02"
                 fill="none"
                 transform="translate(62,85)"
                 stroke-width="1">
                <defs
                   id="defs87">
                  <filter
                     x="-0.0080000004"
                     y="-0.024"
                     width="1.015"
                     height="1.098"
                     filterUnits="objectBoundingBox"
                     id="react-filter-697">
                    <feOffset
                       dx="0"
                       dy="2"
                       in="SourceAlpha"
                       result="shadowOffsetOuter1"
                       id="feOffset76" />
                    <feColorMatrix
                       values="0 0 0 0 0   0 0 0 0 0   0 0 0 0 0  0 0 0 0.2 0"
                       type="matrix"
                       in="shadowOffsetOuter1"
                       result="shadowMatrixOuter1"
                       id="feColorMatrix78" />
                    <feMerge
                       id="feMerge84">
                      <feMergeNode
                         in="shadowMatrixOuter1"
                         id="feMergeNode80" />
                      <feMergeNode
                         in="SourceGraphic"
                         id="feMergeNode82" />
                    </feMerge>
                  </filter>
                </defs>
                <g
                   id="Wayfarers"
                   filter="url(#react-filter-697)"
                   transform="translate(6,7)"
                   fill="#252c2f">
                  <path
                     d="M 34,41 H 31.24215 C 17.314712,41 9,33.335929 9,20.5 9,10.127 10.817006,0 32.529931,0 h 2.940138 C 57.182994,0 59,10.127 59,20.5 59,32.568643 48.721275,41 34,41 Z M 32.385361,6 C 13,6 13,12.841016 13,21.50155 13,28.571943 16.116254,37 30.970936,37 H 34 C 46.364908,37 55,30.627037 55,21.50155 55,12.841016 55,6 35.614639,6 Z"
                     id="Left"
                     fill-rule="nonzero" />
                  <path
                     d="M 96,41 H 93.24215 C 79.314712,41 71,33.335929 71,20.5 71,10.127 72.817006,0 94.529931,0 h 2.940138 C 119.18299,0 121,10.127 121,20.5 121,32.568643 110.72128,41 96,41 Z M 94.385361,6 C 75,6 75,12.841016 75,21.50155 75,28.571943 78.119483,37 92.970936,37 H 96 c 12.36491,0 21,-6.372963 21,-15.49845 C 117,12.841016 117,6 97.614639,6 Z"
                     id="Right"
                     fill-rule="nonzero" />
                  <path
                     d="M 2.9545455,5.7715644 C 3.6459091,5.0962914 11.209546,0 32.5,0 50.351364,0 54.130227,1.8526722 59.850227,4.6518809 l 0.418696,0.2066281 c 0.397678,0.14051 2.431322,0.8313208 4.810138,0.9072862 C 67.246295,5.6727857 69.10002,5.0854019 69.641698,4.8971977 76.170391,1.7220864 82.561097,0 97.5,0 c 21.29045,0 28.85409,5.0962914 29.54546,5.7715644 1.63386,0 2.95454,1.2899446 2.95454,2.8857822 v 2.8857824 c 0,1.595837 -1.32068,2.885782 -2.95454,2.885782 0,0 -6.90146,0 -6.90146,2.885782 0,2.885782 -1.96218,-4.175727 -1.96218,-5.771564 V 8.7324025 C 114.57858,7.3534015 108.12841,4.7861753 97.5,4.7861753 c -11.841535,0 -17.738902,2.0998528 -22.797707,4.1849484 l 0.05657,0.1364049 -0.0025,1.9862324 -2.2172,5.349873 -2.738676,-1.082799 c -0.244594,-0.09671 -0.772351,-0.270443 -1.50414,-0.450931 -2.040079,-0.503162 -4.137442,-0.656335 -5.992267,-0.275596 -0.680494,0.139685 -1.311855,0.349301 -1.891271,0.632424 L 57.770482,16.55787 55.126675,11.396203 55.244091,9.1017571 55.32482,8.9068386 C 50.962053,6.8738637 46.939264,4.7861753 32.5,4.7861753 c -10.627854,0 -17.077869,2.5662644 -20.681818,3.9452918 v 2.8116619 c 0,1.595837 -2.9545456,8.657346 -2.9545456,5.771564 0,-2.885782 -5.9090909,-2.885782 -5.9090909,-2.885782 C 1.3236364,14.428911 0,13.138966 0,11.543129 V 8.6573466 C 0,7.061509 1.3236364,5.7715644 2.9545455,5.7715644 Z"
                     id="Stuff"
                     fill-rule="nonzero" />
                </g>
              </g>
            </g>
          </g>
        </g>
      </g>
    </g>
  </g>
</svg>
